<svg width="50" height="49" viewBox="0 0 50 49" fill="none" xmlns="http://www.w3.org/2000/svg">
<path d="M25 0C11.2227 0 0 9.87891 0 22.1875C0 28.2344 2.77344 33.6641 7.21875 37.6875C6.54688 39.7617 5.04688 41.3984 3.53125 42.6562C2.71484 43.332 1.93359 43.9102 1.3125 44.4688C1.00391 44.7461 0.722656 45.0273 0.5 45.375C0.277344 45.7227 0.078125 46.2188 0.21875 46.75L0.34375 47.1562L0.6875 47.375C1.97656 48.1172 3.58203 48.2461 5.3125 48.125C7.04297 48.0039 8.92969 47.6055 10.7812 47.0938C14.375 46.1016 17.75 44.6875 19.5312 43.9062C21.2891 44.2734 23.0547 44.5 24.9062 44.5C38.6836 44.5 49.9062 34.6211 49.9062 22.3125C49.9062 10.0078 38.7812 0 25 0ZM25 2C37.8203 2 47.9062 11.2148 47.9062 22.3125C47.9062 33.4023 37.7305 42.5 24.9062 42.5C23.0781 42.5 21.3555 42.3203 19.625 41.9375L19.2812 41.8438L19 42C17.3281 42.7383 13.793 44.1797 10.25 45.1562C8.47656 45.6445 6.71094 46.0195 5.1875 46.125C4.16797 46.1953 3.53906 45.9531 2.84375 45.7812C3.33984 45.3555 4.01953 44.8477 4.8125 44.1875C6.55469 42.7422 8.64453 40.7305 9.375 37.75L9.53125 37.125L9.03125 36.75C4.625 33.0156 2 27.875 2 22.1875C2 11.0977 12.1758 2 25 2ZM23.8125 11.8125C23.5117 11.8125 23.4062 11.9883 23.4062 12.1875V14.8125C23.4062 15.1133 23.6133 15.1875 23.8125 15.1875H26.1875C26.4883 15.1875 26.5938 15.0117 26.5938 14.8125V12.1875C26.5938 11.8867 26.3867 11.8125 26.1875 11.8125H23.8125ZM23.9062 19.0938C23.6055 19.0938 23.5 19.3008 23.5 19.5V32.9062C23.5 33.207 23.707 33.3125 23.9062 33.3125V33.4062H26.1875C26.4883 33.4062 26.5938 33.1992 26.5938 33V19.5C26.5938 19.1992 26.3867 19.0938 26.1875 19.0938H23.9062Z" fill="white"/>
</svg>
