<svg width="54" height="54" viewBox="0 0 54 54" fill="none" xmlns="http://www.w3.org/2000/svg">
<path d="M16.6667 42.9999C13.7333 42.9999 11.36 45.3999 11.36 48.3333C11.36 51.2666 13.7333 53.6666 16.6667 53.6666C19.6 53.6666 22 51.2666 22 48.3333C22 45.3999 19.6 42.9999 16.6667 42.9999ZM0.666672 0.333252V5.66659H6L15.6 25.9066L12 32.4399C11.5733 33.1866 11.3333 34.0666 11.3333 34.9999C11.3333 37.9333 13.7333 40.3333 16.6667 40.3333H48.6667V34.9999H17.7867C17.4133 34.9999 17.12 34.7066 17.12 34.3333L17.2 34.0133L19.6 29.6666H39.4667C41.4667 29.6666 43.2267 28.5733 44.1333 26.9199L53.68 9.61325C53.8933 9.23992 54 8.78659 54 8.33325C54 6.86659 52.8 5.66659 51.3333 5.66659H11.8933L9.38667 0.333252H0.666672ZM43.3333 42.9999C40.4 42.9999 38.0267 45.3999 38.0267 48.3333C38.0267 51.2666 40.4 53.6666 43.3333 53.6666C46.2667 53.6666 48.6667 51.2666 48.6667 48.3333C48.6667 45.3999 46.2667 42.9999 43.3333 42.9999Z" fill="black"/>
</svg>
