<svg width="28" height="28" viewBox="0 0 28 28" fill="none" xmlns="http://www.w3.org/2000/svg">
<path d="M14 0.666656C6.65202 0.666656 0.666687 6.65199 0.666687 14C0.666687 21.348 6.65202 27.3333 14 27.3333C21.348 27.3333 27.3334 21.348 27.3334 14C27.3334 6.65199 21.348 0.666656 14 0.666656ZM14 3.33332C19.9069 3.33332 24.6667 8.09316 24.6667 14C24.6667 19.3526 20.7538 23.7507 15.625 24.5312V17.1797H18.7292L19.2162 14.026H15.625V12.3021C15.625 10.9914 16.052 9.82812 17.2787 9.82812H19.2474V7.07551C18.9008 7.02884 18.1691 6.92707 16.7865 6.92707C13.8985 6.92707 12.2058 8.45241 12.2058 11.9271V14.026H9.237V17.1797H12.2058V24.5052C7.16041 23.6545 3.33335 19.2936 3.33335 14C3.33335 8.09316 8.09319 3.33332 14 3.33332Z" fill="white"/>
</svg>
