<svg width="50" height="47" viewBox="0 0 50 47" fill="none" xmlns="http://www.w3.org/2000/svg">
<path d="M1.9375 0.78125C1.38672 0.78125 0.9375 1.23047 0.9375 1.78125V37.4688C0.9375 40.082 1.69922 42.1875 3.25 43.7188C5.71484 46.1562 9.24219 46.2188 9.59375 46.2188H41.375C41.4297 46.2188 41.7734 46.2266 42.25 46.1562C39.1367 45.7617 34.625 43.6172 34.625 37.4688V1.78125C34.625 1.23047 34.1797 0.78125 33.625 0.78125H1.9375ZM36.625 7.5V37.4688C36.625 44.1133 43.0391 44.2188 43.3125 44.2188C43.8516 44.2148 48.3125 44.0117 49 38.9062C49.0469 38.4727 49.0625 38.0195 49.0625 37.5312V12.4375C49.0625 12.4336 49.0625 12.4102 49.0625 12.4062C49.0273 10.957 48.25 8.41406 45.6562 7.71875C44.8438 7.91406 44.168 8.27734 43.6562 8.8125C42.332 10.1953 42.375 12.3242 42.375 12.3438V36.625C42.375 37.1797 41.9297 37.625 41.375 37.625C40.8203 37.625 40.375 37.1797 40.375 36.625V12.375C40.3711 12.3008 40.2734 9.51172 42.125 7.5H36.625ZM7.21875 9H26.9375C27.4922 9 27.9375 9.44922 27.9375 10C27.9375 10.5508 27.4922 11 26.9375 11H7.21875C6.66797 11 6.21875 10.5508 6.21875 10C6.21875 9.44922 6.66797 9 7.21875 9ZM7.21875 13H26.9375C27.4922 13 27.9375 13.4492 27.9375 14C27.9375 14.5508 27.4922 15 26.9375 15H7.21875C6.66797 15 6.21875 14.5508 6.21875 14C6.21875 13.4492 6.66797 13 7.21875 13ZM7.6875 21H14.4688C15.0195 21 15.4688 21.4492 15.4688 22C15.4688 22.5508 15.0195 23 14.4688 23H7.6875C7.13672 23 6.6875 22.5508 6.6875 22C6.6875 21.4492 7.13672 21 7.6875 21ZM19.2188 21H26.9375C27.4922 21 27.9375 21.4492 27.9375 22C27.9375 22.5508 27.4922 23 26.9375 23H19.2188C18.668 23 18.2188 22.5508 18.2188 22C18.2188 21.4492 18.668 21 19.2188 21ZM7.6875 25H14.4688C15.0195 25 15.4688 25.4453 15.4688 26C15.4688 26.5547 15.0195 27 14.4688 27H7.6875C7.13672 27 6.6875 26.5547 6.6875 26C6.6875 25.4453 7.13672 25 7.6875 25ZM19.2188 25H26.9375C27.4922 25 27.9375 25.4453 27.9375 26C27.9375 26.5547 27.4922 27 26.9375 27H19.2188C18.668 27 18.2188 26.5547 18.2188 26C18.2188 25.4453 18.668 25 19.2188 25ZM19.2188 28.7812H26.9375C27.4922 28.7812 27.9375 29.2266 27.9375 29.7812C27.9375 30.3359 27.4922 30.7812 26.9375 30.7812H19.2188C18.668 30.7812 18.2188 30.3359 18.2188 29.7812C18.2188 29.2266 18.668 28.7812 19.2188 28.7812ZM7.6875 29H14.4688C15.0195 29 15.4688 29.4453 15.4688 30C15.4688 30.5547 15.0195 31 14.4688 31H7.6875C7.13672 31 6.6875 30.5547 6.6875 30C6.6875 29.4453 7.13672 29 7.6875 29ZM19.2188 32.7812H26.9375C27.4922 32.7812 27.9375 33.2266 27.9375 33.7812C27.9375 34.3359 27.4922 34.7812 26.9375 34.7812H19.2188C18.668 34.7812 18.2188 34.3359 18.2188 33.7812C18.2188 33.2266 18.668 32.7812 19.2188 32.7812ZM7.6875 33H14.4688C15.0195 33 15.4688 33.4453 15.4688 34C15.4688 34.5547 15.0195 35 14.4688 35H7.6875C7.13672 35 6.6875 34.5547 6.6875 34C6.6875 33.4453 7.13672 33 7.6875 33ZM19.2188 36.5312H26.9375C27.4922 36.5312 27.9375 36.9766 27.9375 37.5312C27.9375 38.0859 27.4922 38.5312 26.9375 38.5312H19.2188C18.668 38.5312 18.2188 38.0859 18.2188 37.5312C18.2188 36.9766 18.668 36.5312 19.2188 36.5312ZM7.6875 37H14.4688C15.0195 37 15.4688 37.4453 15.4688 38C15.4688 38.5547 15.0195 39 14.4688 39H7.6875C7.13672 39 6.6875 38.5547 6.6875 38C6.6875 37.4453 7.13672 37 7.6875 37Z" fill="white"/>
</svg>
